<svg width="160" height="40" viewBox="0 0 160 40" fill="none" xmlns="http://www.w3.org/2000/svg">
  <!-- Icon mark -->
  <rect x="0" y="4" width="32" height="32" rx="8" fill="#5F6FFF"/>
  <path d="M16 10 C10 10 6 14 6 19 C6 24 10 26 13 26 L13 30 C13 30 8 28 5 23 C2 18 4 11 10 8 C13 6 16 6 16 6 Z" fill="white" opacity="0.9"/>
  <path d="M16 10 C22 10 26 14 26 19 C26 24 22 26 19 26 L19 30 C19 30 24 28 27 23 C30 18 28 11 22 8 C19 6 16 6 16 6 Z" fill="white" opacity="0.6"/>
  <circle cx="16" cy="19" r="3.5" fill="white"/>
  <!-- Wordmark -->
  <text x="42" y="26" font-family="'Segoe UI', system-ui, -apple-system, sans-serif" font-size="22" font-weight="700" letter-spacing="-0.5" fill="#1e2a6e">Dock</text>
  <text x="96" y="26" font-family="'Segoe UI', system-ui, -apple-system, sans-serif" font-size="22" font-weight="700" letter-spacing="-0.5" fill="#5F6FFF">Rx</text>
</svg>
